<svg version="1" xmlns="http://www.w3.org/2000/svg" width="1520" height="1520" viewBox="0 0 1140.000000 1140.000000"><path d="M0 580v340h160V640h200v280h160V780h189.7l34.9 69.8 34.9 69.7 180.3.3 180.2.2V760H980l-.2 79.7c-.3 71.1-.5 79.3-1.8 76.7-.8-1.6-8.3-15.1-16.6-29.9-8.3-14.9-16.6-29.7-18.4-33-1.8-3.3-4.1-7.4-5-9-.9-1.7-3.2-5.7-5-9-1.8-3.3-4.9-8.9-7-12.5-2-3.6-4.9-8.6-6.3-11.2-1.5-2.6-4.6-8.3-7-12.5-2.4-4.3-5.5-9.8-6.9-12.3-1.4-2.5-5.8-10.4-9.8-17.5-4-7.2-8.9-15.9-10.8-19.5-1.9-3.6-6.2-11.2-9.5-16.9-3.2-5.7-7.3-12.9-8.9-16-1.7-3.1-3.7-6.7-4.6-8.1-.9-1.4-2.8-4.7-4.2-7.5-1.5-2.7-6.9-12.4-12-21.5-8.3-14.9-26.3-47.1-31.3-56-2.3-4.1-5.3-9.6-11.2-20-9.9-17.6-33.1-59-36.3-65-2-3.6-4.6-8.2-5.9-10.2-1.3-2.1-2.3-3.9-2.3-4.2 0-.2-2.5-4.8-5.6-10.2-3.1-5.5-7-12.4-8.7-15.4-1.6-3-6.2-11.1-10-18-3.9-6.9-8.9-15.9-11.2-20-3.6-6.6-30.2-54.1-32.5-58-.5-.8-4-7.1-7.8-14s-8.1-14.6-9.5-17.2c-1.5-2.6-4.7-8.4-7.2-12.8-5.8-10.1-8.8-15.5-11.8-21.1-1.3-2.4-3.3-6-4.4-7.9-1.1-1.9-5.2-9.4-9.2-16.5-3.9-7.2-7.6-13.7-8.1-14.5-.6-.8-1.3-2.2-1.7-3-.4-.8-2.6-4.8-5-8.8-2.4-4.1-4.3-7.5-4.3-7.6 0-.2-4.9-9-10.9-19.7l-11-19.4-120-.3L360 240v260H160V240H0v340zm585.3-48.8L639.8 640H520V400.7l5.4 10.9c3 6 29.9 59.8 59.9 119.6z"/><path d="M980 440v200h160V240H980v200z"/></svg>