<svg xmlns="http://www.w3.org/2000/svg" width="57" height="34" viewBox="0 0 57 34" class="logo">
	<rect class="logo-b" x="18" width="8" height="34"/>
	<polygon class="logo-b" points="26 8 39 34 49 34 30 0 26 0 26 8"/>
	<polygon class="logo-w" points="30 0 49 0 49 34 30 0"/>
	<rect class="logo-w" x="8" width="10" height="13"/>
	<rect class="logo-w" x="8" y="20" width="10" height="14"/>
	<polygon class="logo-w" points="35.5 27 26 27 26 34 39 34 35.5 27"/>
	<rect class="logo-b" x="49" y="26" width="8" height="8"/>
	<rect class="logo-b" x="49" width="8" height="20"/>
	<polygon class="logo-b" points="32 20 26 20 26 27 35.5 27 32 20"/>
	<rect class="logo-w" x="49" y="20" width="8" height="6"/>
	<rect class="logo-b" x="8" y="13" width="10" height="7"/>
	<rect class="logo-b" width="8" height="34"/>
	<polygon class="logo-w" points="26 8 26 20 32 20 26 8"/>
</svg>